HIERARCHY
ROOT hip
{
	OFFSET 0.000000 0.000000 0.000000 
	CHANNELS 6 Xposition Yposition Zposition Xrotation Zrotation Yrotation
	JOINT abdomen
	{
		OFFSET 0.000000 3.402643 0.000000 
		CHANNELS 3 Xrotation Zrotation Yrotation
		JOINT chest
		{
			OFFSET 0.000000 8.438565 -0.680529 
			CHANNELS 3 Xrotation Zrotation Yrotation
			JOINT neck
			{
				OFFSET 0.000000 10.207942 -0.272212 
				CHANNELS 3 Xrotation Zrotation Yrotation
				JOINT head
				{
					OFFSET 0.000000 3.130431 0.000000 
					CHANNELS 3 Xrotation Zrotation Yrotation
					End Site
					{
						OFFSET 0.000000 3.130435 0.000000 
					}
				}
			}
			JOINT lCollar
			{
				OFFSET 3.470700 6.669187 -0.816635 
				CHANNELS 3 Yrotation Zrotation Xrotation
				JOINT lShldr
				{
					OFFSET 3.198488 0.000000 0.000000 
					CHANNELS 3 Zrotation Yrotation Xrotation
					JOINT lForeArm
					{
						OFFSET 10.139888 0.000000 0.000000 
						CHANNELS 3 Yrotation Zrotation Xrotation
						JOINT lHand
						{
							OFFSET 8.370511 0.000000 0.000000 
							CHANNELS 3 Zrotation Yrotation Xrotation
							End Site
							{
								OFFSET 4.083176 0.000000 0.000000 
							}
						}
					}
				}
			}
			JOINT rCollar
			{
				OFFSET -3.470700 6.669187 -0.816635 
				CHANNELS 3 Yrotation Zrotation Xrotation
				JOINT rShldr
				{
					OFFSET -3.198488 0.000000 0.000000 
					CHANNELS 3 Zrotation Yrotation Xrotation
					JOINT rForeArm
					{
						OFFSET -10.139888 0.000000 0.000000 
						CHANNELS 3 Yrotation Zrotation Xrotation
						JOINT rHand
						{
							OFFSET -8.370511 0.000000 0.000000 
							CHANNELS 3 Zrotation Yrotation Xrotation
							End Site
							{
								OFFSET -4.083176 0.000000 0.000000 
							}
						}
					}
				}
			}
		}
	}
	JOINT lThigh
	{
		OFFSET 5.308129 -1.633274 1.361059 
		CHANNELS 3 Xrotation Zrotation Yrotation
		JOINT lShin
		{
			OFFSET -2.041588 -20.007561 0.000000 
			CHANNELS 3 Xrotation Zrotation Yrotation
			JOINT lFoot
			{
				OFFSET 0.000000 -19.190928 -1.224953 
				CHANNELS 3 Xrotation Yrotation Zrotation
				End Site
				{
					OFFSET 0.000000 -2.449906 4.627600 
				}
			}
		}
	}
	JOINT rThigh
	{
		OFFSET -5.308129 -1.633274 1.361059 
		CHANNELS 3 Xrotation Zrotation Yrotation
		JOINT rShin
		{
			OFFSET 2.041588 -20.007561 0.000000 
			CHANNELS 3 Xrotation Zrotation Yrotation
			JOINT rFoot
			{
				OFFSET 0.000000 -19.190928 -1.224953 
				CHANNELS 3 Xrotation Yrotation Zrotation
				End Site
				{
					OFFSET 0.000000 -2.449906 4.627600 
				}
			}
		}
	}
}
MOTION
Frames: 11
Frame Time: 0.016667
-3.954372 53.142647 -6.056235 -7.090659 -0.123330 13.720734 29.132488 0.941276 -0.220601 -1.090693 -0.107378 -2.490250 -15.147275 -0.554188 0.123352 7.732636 0.392798 -26.641291 -7.665385 -1.289879 -0.064114 -55.493000 13.092375 -12.052595 -14.297198 -5.000000 45.000000 -46.890671 12.100736 9.278817 10.624039 -1.169581 0.053097 70.884483 -20.106968 -25.573467 8.141214 5.000000 45.000000 21.469450 -12.526662 17.623468 6.081370 12.233116 1.289855 0.759796 -5.004354 -0.244912 0.337624 7.249138 -8.157657 11.057472 -5.983690 -7.114438 -0.496376 2.461918 0.023935 2.303348 -13.959945 8.495421 
-3.941507 53.146358 -6.056694 -7.132684 -0.094834 13.808607 29.201159 0.945521 -0.207542 -1.080047 -0.136662 -2.509784 -15.176332 -0.478404 0.102010 7.746245 0.496433 -26.895557 -7.704627 -1.259312 -0.072282 -55.521976 13.072677 -12.056752 -14.268183 -5.000000 45.000000 -46.726372 12.054534 9.335312 10.536089 -1.101298 0.049565 70.862267 -20.089178 -25.597574 8.133553 5.000000 45.000000 21.351154 -12.541139 17.733644 6.023718 12.233974 1.089288 0.867652 -5.026522 -0.272954 0.268256 7.331642 -8.176564 11.131855 -6.015192 -7.207152 -0.516761 2.507843 0.031494 2.340122 -14.017453 8.614475 
-3.935632 53.148426 -6.059556 -7.177032 -0.075822 13.945313 29.288664 0.951838 -0.226392 -1.078862 -0.175707 -2.539084 -15.224898 -0.354340 0.073364 7.724122 0.590795 -27.169531 -7.772899 -1.191032 -0.068765 -55.561966 13.056461 -12.071058 -14.276167 -5.000000 45.000000 -46.506355 11.979085 9.423426 10.448130 -1.013509 0.045026 70.839409 -20.080633 -25.615179 8.150183 5.000000 45.000000 21.230545 -12.570097 17.805307 5.966736 12.245782 0.870065 0.985586 -5.064918 -0.340705 0.156228 7.478987 -8.147490 11.187510 -6.004155 -7.363296 -0.516818 2.508084 0.041254 2.345119 -14.155425 8.702125 
-3.929723 53.149662 -6.062013 -7.231063 -0.056830 14.091800 29.376381 0.966400 -0.241437 -1.068138 -0.204988 -2.568383 -15.263789 -0.239932 0.046178 7.695827 0.676008 -27.443371 -7.841187 -1.132505 -0.065749 -55.603161 13.045753 -12.093320 -14.274021 -5.000000 45.000000 -46.312950 11.867293 9.550259 10.360356 -0.953223 0.051604 70.807854 -20.067116 -25.635969 8.166652 5.000000 45.000000 21.117096 -12.616734 17.838547 5.905668 12.270473 0.643147 1.110595 -5.108950 -0.370278 0.065203 7.575092 -8.128993 11.246888 -6.004429 -7.481292 -0.496116 2.521442 0.012845 2.405984 -14.216361 8.789887 
-3.923568 53.147602 -6.062818 -7.333694 -0.075719 14.257813 29.464306 1.035540 -0.264935 -1.049355 -0.175700 -2.636740 -15.273517 -0.191654 0.038874 7.695709 0.743685 -27.687958 -7.929066 -1.122737 -0.065245 -55.669270 13.066533 -12.156589 -14.291431 -5.000000 45.000000 -46.280380 11.647400 9.786348 10.311538 -0.962975 0.052108 70.785027 -20.058615 -25.656958 8.179360 5.000000 45.000000 21.034990 -12.689195 17.635235 5.875632 12.355607 0.443863 1.238547 -5.159255 -0.341350 0.137757 7.502681 -8.128510 11.301354 -5.934480 -7.548368 -0.360823 2.484632 0.002274 2.505767 -14.194421 8.827721 
-3.917413 53.145538 -6.063619 -7.429101 -0.104036 14.423838 29.542402 1.113912 -0.285004 -1.020822 -0.146413 -2.705097 -15.273493 -0.153031 0.033030 7.695006 0.811039 -27.932728 -8.016934 -1.103217 -0.064238 -55.724815 13.097331 -12.212257 -14.303612 -5.000000 45.000000 -46.250179 11.420051 10.015464 10.262727 -0.982481 0.053116 70.762215 -20.050133 -25.677950 8.189300 5.000000 45.000000 20.950790 -12.770884 17.426081 5.855884 12.424584 0.252832 1.355045 -5.189903 -0.302103 0.211477 7.445104 -8.141909 11.359902 -5.875914 -7.616859 -0.234063 2.459443 -0.038477 2.614907 -14.166039 8.858330 
-3.881858 53.150074 -6.043392 -7.446169 -0.094586 14.404309 29.474657 1.150875 -0.237364 -0.971470 -0.165938 -2.656271 -15.263746 -0.181998 0.037413 7.684498 0.895282 -28.177563 -8.065625 -1.153342 -0.057081 -55.766647 13.089260 -12.304215 -14.198973 -5.000000 45.000000 -46.243347 11.400396 10.080331 10.184609 -0.992233 0.053620 70.709305 -20.082003 -25.676004 8.206484 5.000000 45.000000 20.977533 -12.740822 17.361311 5.935049 12.376577 0.240049 1.298588 -5.164181 -0.307145 0.247833 7.474721 -8.111569 11.352710 -5.945192 -7.588778 -0.097192 2.498399 -0.011537 2.553287 -14.104354 8.875110 
-3.838910 53.156269 -6.017883 -7.443623 -0.085157 14.326183 29.358185 1.204206 -0.172530 -0.911818 -0.204986 -2.587915 -15.254015 -0.230277 0.044717 7.678548 0.987796 -28.412691 -8.094995 -1.221611 -0.060598 -55.789696 13.077198 -12.397182 -14.057775 -5.000000 45.000000 -46.238255 11.427542 10.081152 10.096720 -0.992233 0.053620 70.647034 -20.118118 -25.674025 8.232279 5.000000 45.000000 21.023300 -12.678008 17.331980 6.050808 12.287133 0.263865 1.189873 -5.100387 -0.318247 0.295125 7.494617 -8.085225 11.355339 -6.053951 -7.537443 0.009922 2.538984 -0.025370 2.465748 -14.021925 8.875353 
-3.808156 53.161633 -5.996572 -7.458276 -0.066245 14.287111 29.280741 1.244385 -0.133444 -0.882050 -0.224512 -2.548853 -15.254094 -0.267439 0.060216 7.672383 1.080175 -28.618773 -8.105042 -1.278749 -0.073277 -55.815784 13.078812 -12.446631 -13.966426 -5.000000 45.000000 -46.317944 11.544453 10.013042 10.047891 -0.992233 0.053620 70.596779 -20.165754 -25.690300 8.240911 5.000000 45.000000 21.045822 -12.654865 17.285051 6.161223 12.242620 0.291703 1.101872 -5.080375 -0.320931 0.300715 7.542571 -8.045703 11.360871 -6.101125 -7.515956 0.077882 2.557868 0.007275 2.428692 -14.003480 8.857305 
-3.795741 53.165756 -5.981569 -7.504684 -0.056784 14.277347 29.261658 1.261473 -0.125510 -0.882050 -0.224512 -2.568385 -15.244347 -0.286750 0.063138 7.652441 1.198399 -28.776335 -8.066020 -1.308014 -0.074785 -55.832588 13.085269 -12.432189 -13.966426 -5.000000 45.000000 -46.498089 11.779240 9.828481 10.038126 -0.992233 0.053620 70.577034 -20.194788 -25.728909 8.229268 5.000000 45.000000 21.010397 -12.700217 17.269882 6.247276 12.221419 0.282740 1.082351 -5.074320 -0.290110 0.289623 7.601047 -8.033915 11.407322 -6.119358 -7.528494 0.107402 2.595888 0.008394 2.420095 -14.049175 8.777215 
-3.783359 53.169884 -5.966571 -7.560870 -0.047320 14.277346 29.232618 1.282838 -0.126475 -0.882012 -0.224511 -2.597682 -15.244381 -0.315717 0.067521 7.636569 1.307707 -28.934031 -8.026760 -1.328889 -0.066123 -55.849400 13.091738 -12.415542 -13.969378 -5.000000 45.000000 -46.680462 12.005771 9.635848 10.038126 -0.992233 0.053620 70.549622 -20.231371 -25.773188 8.220383 5.000000 45.000000 20.989315 -12.736458 17.245516 6.334285 12.209650 0.294553 1.043856 -5.052510 -0.287093 0.306583 7.634993 -8.043126 11.457913 -6.149021 -7.522721 0.166135 2.612816 0.041412 2.384882 -14.052634 8.763481 
